<svg width="127" height="40" fill="none" xmlns="http://www.w3.org/2000/svg"><g clip-path="url(#clip0_3_74)" fill="#C63235"><path d="M19.156 14.33l-4.82 4.82-3.75-3.746A7.934 7.934 0 01.56 5a.313.313 0 01.51-.103l5.119 5.119a2.753 2.753 0 003.65.256 2.705 2.705 0 00.229-4.031L4.89 1.063a.31.31 0 01.103-.508A7.934 7.934 0 0115.4 10.58l3.756 3.75zm.854.86l-4.821 4.82 4.816 4.816 4.82-4.82-4.816-4.817zM39.44 35a.31.31 0 01-.507.104l-5.177-5.177a2.706 2.706 0 00-4.032.23 2.753 2.753 0 00.257 3.649l5.12 5.119a.314.314 0 01-.104.51 7.931 7.931 0 01-10.405-10.027l-3.732-3.73 4.82-4.82 3.736 3.735A7.935 7.935 0 0139.44 35.001z"/><path d="M8.607 39.97a7.935 7.935 0 006.8-10.552l14.009-14.01A7.934 7.934 0 0039.44 5.003a.311.311 0 00-.507-.104l-5.177 5.177a2.706 2.706 0 01-4.032-.231 2.754 2.754 0 01.257-3.65l5.119-5.12a.31.31 0 00-.104-.507 7.93 7.93 0 00-10.405 10.025L10.582 24.602A7.934 7.934 0 00.555 35.007a.312.312 0 00.51.103l5.119-5.119a2.753 2.753 0 013.65-.256 2.708 2.708 0 01.229 4.033l-5.177 5.177a.313.313 0 00.103.51 7.94 7.94 0 003.618.515z"/></g><path d="M54.584 1.4v.704h-1.656V7h-.736V2.104h-1.648V1.4h4.04zm1.18 4.896h2.6V7H55.02V1.4h3.304v.704h-2.56v1.72h2.36v.696h-2.36v1.776zM62.946 7H62.1l-1.377-2.208L59.346 7h-.84l1.8-2.88-1.695-2.72h.84l1.271 2.04 1.273-2.04h.84l-1.688 2.712L62.947 7zm3.9-5.6h.735V7h-.736V4.48h-2.72V7h-.744V1.4h.744v2.376h2.72V1.4zM71.96 7V2.824L69.08 7h-.6V1.4h.744v4.184l2.88-4.184h.6V7h-.744zm4.722-5.6h.744V7h-.744V4.744a3.166 3.166 0 01-1.376.312c-.544 0-.984-.152-1.32-.456-.336-.31-.504-.71-.504-1.2v-2h.744v1.952c0 .304.096.547.288.728.192.181.458.272.8.272.48 0 .936-.104 1.368-.312V1.4zm2.387 4.896h2.6V7h-3.344V1.4h3.304v.704h-2.56v1.72h2.36v.696h-2.36v1.776zm5.791.808c-.848 0-1.55-.28-2.104-.84-.55-.56-.824-1.248-.824-2.064 0-.816.275-1.504.824-2.064.555-.56 1.256-.84 2.104-.84.512 0 .981.123 1.408.368.432.245.768.576 1.008.992l-.648.376c-.16-.31-.4-.555-.72-.736a2.015 2.015 0 00-1.048-.28c-.645 0-1.173.208-1.584.624-.405.416-.608.936-.608 1.56 0 .619.203 1.136.608 1.552.41.416.939.624 1.584.624.384 0 .734-.09 1.048-.272.32-.187.56-.432.72-.736l.648.368c-.234.416-.568.75-1 1a2.818 2.818 0 01-1.416.368zM91.89 7h-.911l-2.416-2.688V7h-.744V1.4h.744v2.528L90.899 1.4h.912l-2.472 2.72L91.89 7zm3.843 0V2.824L92.853 7h-.6V1.4h.744v4.184l2.88-4.184h.6V7h-.744zM98.407.8V.192h2.16V.8h-2.16zm2.448 6.2V2.824L97.975 7h-.6V1.4h.744v4.184l2.88-4.184h.6V7h-.744zm7.406-.704h.6v1.776h-.744V7h-3.92V1.4h.744v4.896h2.576V1.4h.744v4.896zm1.903 0h2.6V7h-3.344V1.4h3.304v.704h-2.56v1.72h2.36v.696h-2.36v1.776zm6.663-4.896h.736V7h-.736V4.48h-2.72V7h-.744V1.4h.744v2.376h2.72V1.4zm5.218 0v.704h-1.656V7h-.736V2.104h-1.648V1.4h4.04zm2.468 0c.518 0 .947.173 1.288.52.347.341.52.768.52 1.28 0 .507-.173.933-.52 1.28-.341.347-.77.52-1.288.52h-1.288v2h-.744V1.4h2.032zm0 2.904c.31 0 .566-.104.768-.312.203-.213.304-.477.304-.792 0-.32-.101-.584-.304-.792a1.025 1.025 0 00-.768-.312h-1.288v2.208h1.288z" fill="#333"/><path d="M59.26 13H62v14h-2.74v-5.8h-5.2V27H51.3V13h2.76v5.56h5.2V13zM72.4 27v-8.54l-6 8.54h-2.1V13h2.76v8.56l6-8.56h2.1v14H72.4zm13.518-7.26c1.226.707 1.84 1.773 1.84 3.2 0 1.187-.42 2.16-1.26 2.92-.84.76-1.874 1.14-3.1 1.14h-5.94V13h5.52c1.2 0 2.207.373 3.02 1.12.826.733 1.24 1.673 1.24 2.82 0 1.16-.44 2.093-1.32 2.8zm-2.94-4.16h-2.76v3.08h2.76c.427 0 .78-.147 1.06-.44.293-.293.44-.66.44-1.1 0-.44-.14-.807-.42-1.1-.28-.293-.64-.44-1.08-.44zm.42 8.84c.467 0 .853-.153 1.16-.46.306-.32.46-.72.46-1.2 0-.467-.153-.853-.46-1.16-.307-.32-.694-.48-1.16-.48h-3.18v3.3h3.18zm17.749-11.7c2.027 0 3.747.707 5.16 2.12 1.414 1.4 2.12 3.12 2.12 5.16 0 2.027-.706 3.747-2.12 5.16-1.413 1.413-3.133 2.12-5.16 2.12-1.813 0-3.387-.58-4.72-1.74-1.32-1.16-2.113-2.633-2.38-4.42h-2.02V27h-2.76V13h2.76v5.48h2.08c.347-1.68 1.167-3.06 2.46-4.14 1.307-1.08 2.834-1.62 4.58-1.62zm-3.22 10.58c.867.853 1.94 1.28 3.22 1.28 1.28 0 2.354-.427 3.22-1.28.867-.867 1.3-1.967 1.3-3.3 0-1.333-.433-2.433-1.3-3.3-.866-.867-1.94-1.3-3.22-1.3-1.293 0-2.373.427-3.24 1.28-.853.853-1.28 1.96-1.28 3.32 0 1.333.434 2.433 1.3 3.3zm18.774 3.98c-2.107 0-3.847-.7-5.22-2.1-1.373-1.4-2.06-3.127-2.06-5.18 0-2.067.687-3.793 2.06-5.18 1.373-1.4 3.113-2.1 5.22-2.1 1.267 0 2.433.3 3.5.9 1.08.587 1.92 1.387 2.52 2.4l-2.38 1.38a3.632 3.632 0 00-1.48-1.46c-.64-.36-1.36-.54-2.16-.54-1.36 0-2.46.427-3.3 1.28-.827.853-1.24 1.96-1.24 3.32 0 1.347.413 2.447 1.24 3.3.84.853 1.94 1.28 3.3 1.28.8 0 1.52-.173 2.16-.52.653-.36 1.147-.847 1.48-1.46l2.38 1.38a6.608 6.608 0 01-2.5 2.42c-1.067.587-2.24.88-3.52.88z" fill="#C63235"/><path d="M55.95 32.4V38h-.737v-4.376l-1.832 3.048h-.096l-1.832-3.04V38h-.744v-5.6h.84l1.784 2.96 1.776-2.96h.84zm5.553 4.856c-.56.565-1.245.848-2.056.848-.81 0-1.496-.283-2.056-.848a2.813 2.813 0 01-.84-2.056c0-.81.28-1.496.84-2.056.56-.565 1.245-.848 2.056-.848.81 0 1.496.283 2.056.848.565.56.848 1.245.848 2.056a2.8 2.8 0 01-.848 2.056zm-3.6-.504c.416.416.93.624 1.544.624.613 0 1.125-.208 1.536-.624.416-.421.624-.939.624-1.552 0-.619-.208-1.136-.624-1.552-.41-.421-.923-.632-1.536-.632-.614 0-1.128.21-1.544.632-.41.416-.616.933-.616 1.552 0 .613.205 1.13.616 1.552zm7.674 1.352c-.848 0-1.549-.28-2.104-.84-.549-.56-.824-1.248-.824-2.064 0-.816.275-1.504.824-2.064.555-.56 1.256-.84 2.104-.84.512 0 .982.123 1.408.368.432.245.768.576 1.008.992l-.648.376c-.16-.31-.4-.555-.72-.736a2.015 2.015 0 00-1.048-.28c-.645 0-1.173.208-1.584.624-.405.416-.608.936-.608 1.56 0 .619.203 1.136.608 1.552.411.416.939.624 1.584.624.384 0 .734-.09 1.048-.272.32-.187.56-.432.72-.736l.648.368c-.234.416-.568.75-1 1a2.819 2.819 0 01-1.416.368zm7.03-.104h-.911l-2.416-2.688V38h-.744v-5.6h.744v2.528l2.336-2.528h.912l-2.472 2.72L72.608 38zm3.563-2.904c.256.123.459.299.608.528.155.23.232.493.232.792 0 .448-.157.824-.472 1.128a1.596 1.596 0 01-1.152.456H72.97v-5.6h2.24c.438 0 .808.147 1.112.44.304.293.456.656.456 1.088 0 .496-.202.885-.608 1.168zm-.96-2h-1.496v1.712h1.496a.791.791 0 00.592-.248.841.841 0 00.24-.608.817.817 0 00-.248-.6.77.77 0 00-.584-.256zm.176 4.208a.844.844 0 00.632-.264.895.895 0 00.256-.648.871.871 0 00-.264-.64.836.836 0 00-.624-.264h-1.672v1.816h1.672zM81.28 38l-.456-1.256h-2.52L77.848 38h-.792l2.088-5.6h.84l2.088 5.6h-.792zm-2.72-1.952h2.008l-1.008-2.76-1 2.76zM87.613 38v-4.176L84.733 38h-.6v-5.6h.744v4.184l2.88-4.184h.6V38h-.744zm8.582-5.6V38h-.736v-4.376l-1.832 3.048h-.096l-1.832-3.04V38h-.744v-5.6h.84l1.784 2.96 1.776-2.96h.84zm5.553 4.856c-.56.565-1.245.848-2.056.848-.81 0-1.496-.283-2.056-.848a2.813 2.813 0 01-.84-2.056c0-.81.28-1.496.84-2.056.56-.565 1.246-.848 2.056-.848.811 0 1.496.283 2.056.848.566.56.848 1.245.848 2.056 0 .805-.282 1.49-.848 2.056zm-3.6-.504c.416.416.93.624 1.544.624s1.126-.208 1.536-.624c.416-.421.624-.939.624-1.552 0-.619-.208-1.136-.624-1.552-.41-.421-.922-.632-1.536-.632-.613 0-1.128.21-1.544.632-.41.416-.616.933-.616 1.552 0 .613.206 1.13.616 1.552z" fill="#828282"/><defs><clipPath id="clip0_3_74"><path fill="#fff" d="M0 0h40v40H0z"/></clipPath></defs></svg>