<svg width="25" height="25" fill="none" xmlns="http://www.w3.org/2000/svg"><g clip-path="url(#clip0_1801_65538)"><path fill-rule="evenodd" clip-rule="evenodd" d="M1.757 1.757C0 3.515 0 6.343 0 12v1c0 5.657 0 8.485 1.757 10.243C3.515 25 6.343 25 12 25h1c5.657 0 8.485 0 10.243-1.757C25 21.485 25 18.657 25 13v-1c0-5.657 0-8.485-1.757-10.243C21.485 0 18.657 0 13 0h-1C6.343 0 3.515 0 1.757 1.757zM4.22 7.604c.135 6.5 3.385 10.407 9.083 10.407h.323v-3.72c2.094.21 3.677 1.74 4.313 3.72h2.958c-.813-2.959-2.948-4.594-4.282-5.22 1.334-.77 3.209-2.645 3.657-5.187h-2.688c-.583 2.063-2.312 3.938-3.958 4.115V7.604h-2.688v7.209c-1.666-.417-3.77-2.438-3.864-7.209H4.219z" fill="#fff"/></g><defs><clipPath id="clip0_1801_65538"><path fill="#fff" d="M0 0h25v25H0z"/></clipPath></defs></svg>