<svg width="25" height="25" fill="none" xmlns="http://www.w3.org/2000/svg"><path d="M0 25l1.757-6.42a12.362 12.362 0 01-1.653-6.193C.107 5.556 5.664 0 12.493 0a12.309 12.309 0 018.763 3.633 12.317 12.317 0 013.625 8.765c-.003 6.83-5.56 12.387-12.388 12.387a12.395 12.395 0 01-5.925-1.508L0 25zm6.872-3.966c1.746 1.037 3.412 1.658 5.617 1.659 5.674 0 10.297-4.619 10.3-10.297.003-5.69-4.598-10.302-10.292-10.304-5.68 0-10.3 4.618-10.301 10.295-.001 2.318.678 4.054 1.819 5.87l-1.041 3.8 3.898-1.023zm11.861-5.691c-.077-.13-.283-.207-.593-.362s-1.832-.904-2.116-1.007c-.283-.103-.49-.155-.697.155-.206.31-.8 1.008-.98 1.214-.18.206-.362.232-.671.077-.31-.155-1.307-.482-2.49-1.537-.92-.82-1.541-1.834-1.721-2.144-.18-.31-.02-.478.135-.632.14-.138.31-.361.465-.542.157-.18.208-.309.312-.516.103-.206.052-.388-.026-.543-.078-.154-.697-1.678-.954-2.298-.252-.603-.507-.522-.697-.53l-.594-.011c-.206 0-.541.077-.825.387-.283.31-1.083 1.059-1.083 2.582 0 1.524 1.11 2.996 1.263 3.203.156.206 2.183 3.333 5.288 4.673.739.32 1.316.51 1.764.653.742.235 1.417.202 1.95.123.595-.089 1.832-.75 2.09-1.472.258-.724.258-1.344.18-1.473z" fill="#fff"/></svg>