<svg width="25" height="25" fill="none" xmlns="http://www.w3.org/2000/svg"><path d="M24.751 7.5s-.244-1.724-.996-2.48c-.952-.996-2.017-1.001-2.505-1.06-3.496-.254-8.745-.254-8.745-.254h-.01s-5.249 0-8.745.254c-.488.059-1.553.064-2.505 1.06C.493 5.776.254 7.5.254 7.5S0 9.526 0 11.548v1.894c0 2.022.249 4.048.249 4.048s.244 1.724.991 2.48c.952.997 2.202.963 2.759 1.07 2.002.19 8.501.25 8.501.25s5.254-.01 8.75-.26c.488-.058 1.553-.063 2.505-1.06.752-.756.996-2.48.996-2.48S25 15.47 25 13.442v-1.894c0-2.022-.249-4.048-.249-4.048zM9.917 15.742V8.716l6.753 3.525-6.753 3.501z" fill="#fff"/></svg>